<svg version="1.1" id="Layer_1" xmlns="http://www.w3.org/2000/svg" xmlns:xlink="http://www.w3.org/1999/xlink" x="0px" y="0px"
	 width="100%" viewBox="0 0 1536 1024" enable-background="new 0 0 1536 1024" xml:space="preserve">
<path fill="#020201" opacity="1.000000" stroke="none" 
	d="
M976.000000,1025.000000 
	C650.666687,1025.000000 325.833344,1025.000000 1.000000,1025.000000 
	C1.000000,683.666687 1.000000,342.333344 1.000000,1.000000 
	C513.000000,1.000000 1025.000000,1.000000 1537.000000,1.000000 
	C1537.000000,342.333344 1537.000000,683.666687 1537.000000,1025.000000 
	C1350.166626,1025.000000 1163.333374,1025.000000 976.000000,1025.000000 
M641.854980,440.372833 
	C641.854980,440.372833 641.885376,440.836060 641.451477,441.263458 
	C641.369751,441.855011 641.288086,442.446564 640.947327,443.590820 
	C640.923035,443.994537 640.898743,444.398224 640.371277,445.373047 
	C637.059082,459.233612 633.746887,473.094177 630.037354,487.647827 
	C628.464722,494.056732 626.892029,500.465607 625.001587,507.480621 
	C623.531189,513.518433 622.060791,519.556213 620.139954,526.133789 
	C618.282349,533.311279 616.424805,540.488708 614.397888,548.320435 
	C626.605835,548.320435 637.839050,548.320435 649.970032,548.560364 
	C658.353699,548.471130 666.737366,548.381897 676.016846,548.510193 
	C696.030273,548.386047 716.043640,548.261902 736.950684,548.357239 
	C740.635254,548.226135 744.319885,548.095032 748.791931,548.127319 
	C749.517395,547.875671 750.786560,547.758972 750.887390,547.352356 
	C752.648438,540.252869 754.266418,533.117737 755.973572,525.503540 
	C755.973572,525.503540 755.858765,525.026794 756.018677,524.489746 
	C756.005615,524.303406 755.992615,524.117004 756.258606,523.612122 
	C756.455933,523.408691 756.630676,523.187378 757.055969,522.116089 
	C756.166870,521.825256 755.277832,521.280640 754.388733,521.280640 
	C729.626709,521.279968 704.864685,521.334595 679.188965,521.121399 
	C675.048950,521.121399 670.908997,521.121399 666.699280,521.121399 
	C666.844299,518.918030 666.939392,517.472534 667.365173,515.422241 
	C667.757751,513.021790 667.968323,510.574463 668.573120,508.228699 
	C671.950439,495.128662 675.423157,482.053162 679.076233,468.246063 
	C679.240479,467.159485 679.369202,466.066101 679.575256,464.987488 
	C680.389832,460.723816 681.228577,456.464783 682.734802,451.952301 
	C684.806519,444.442200 686.977478,436.957672 688.920410,429.414429 
	C690.678833,422.587280 692.188538,415.696075 693.981567,408.097046 
	C679.708740,408.097046 666.245972,407.997284 652.790222,408.256622 
	C651.492493,408.281616 649.489502,410.329590 649.087341,411.789368 
	C646.880798,419.797852 645.071350,427.915741 642.755554,436.529297 
	C642.600525,437.364746 642.445496,438.200226 642.048767,439.487152 
	C642.073486,439.656006 642.098145,439.824829 641.854980,440.372833 
M832.351624,461.459503 
	C832.351624,461.459503 832.218872,461.156097 832.699646,460.478729 
	C834.353394,453.543854 836.007141,446.608978 837.993652,439.146271 
	C840.429871,429.089081 842.866028,419.031891 845.489929,408.199799 
	C831.250427,408.199799 817.941650,408.122375 804.637024,408.321991 
	C803.335693,408.341522 801.235474,409.837189 800.902771,411.035492 
	C798.237488,420.635071 795.908569,430.328064 793.148743,440.433441 
	C793.126465,441.287964 793.104248,442.142487 793.024170,443.527313 
	C793.073608,443.698120 793.123047,443.868896 792.811829,444.711700 
	C791.987732,447.119476 791.163635,449.527283 790.002869,452.534790 
	C786.804688,465.704163 783.606567,478.873535 780.000732,492.696045 
	C778.271545,500.151733 776.542419,507.607391 774.355347,515.617065 
	C772.712036,522.394470 771.068787,529.171936 769.042664,536.646179 
	C768.017456,540.364563 766.992249,544.082947 765.838257,548.268494 
	C778.456604,548.268494 790.283325,548.268494 803.002197,548.494324 
	C809.996887,548.364014 816.991638,548.233704 824.908569,548.299072 
	C843.628784,548.241821 862.348938,548.184570 881.964539,548.402527 
	C887.793457,548.331360 893.628357,548.379456 899.446411,548.089661 
	C900.629272,548.030701 901.748657,546.699280 903.200439,545.460266 
	C905.279297,537.559082 907.358154,529.657959 909.535950,521.380798 
	C885.213623,521.380798 861.635559,521.380798 837.190247,521.145386 
	C834.802734,521.194153 832.415161,521.242920 829.176636,521.090454 
	C827.439758,521.181763 825.702820,521.273071 823.117920,521.189941 
	C821.382874,521.220398 819.647827,521.250793 817.852356,520.439270 
	C819.275757,513.976135 820.699219,507.513000 822.579529,500.491547 
	C824.717590,491.663818 826.855591,482.836121 829.257019,473.568207 
	C829.249817,473.397369 829.242615,473.226532 829.673340,472.672546 
	C829.737244,472.108948 829.801208,471.545349 830.179749,470.320374 
	C830.453979,468.884979 830.728210,467.449615 831.361877,465.638031 
	C831.602173,464.309692 831.842529,462.981384 832.351624,461.459503 
M432.041168,513.391846 
	C429.932007,521.906616 427.822815,530.421326 425.240601,539.583923 
	C424.483124,542.390320 423.725677,545.196716 422.876190,548.344116 
	C437.405457,548.344116 451.262177,548.344116 466.012573,548.568237 
	C474.041595,548.493530 482.070587,548.418762 490.995575,548.569336 
	C508.661774,548.381653 526.327942,548.194031 544.915466,548.173462 
	C558.063477,547.918091 570.970093,546.425598 583.738098,540.597595 
	C600.069763,533.357666 608.252930,520.239441 610.000732,502.995178 
	C610.754089,495.562469 609.237488,488.379639 602.014404,483.977722 
	C602.014404,483.977722 602.123352,483.902252 601.902527,483.265198 
	C598.272888,481.578979 594.643311,479.892761 590.345459,477.890381 
	C589.122070,477.055756 587.898682,476.221161 587.421814,475.295532 
	C591.531738,473.906067 595.641602,472.516602 599.617676,470.996460 
	C599.617676,470.996460 599.593933,471.117157 599.876526,471.045166 
	C599.876526,471.045166 599.984985,470.774384 600.667664,470.654236 
	C607.379639,467.149506 612.936646,462.321472 616.254150,455.477386 
	C617.990234,451.895874 618.755371,447.843750 620.109558,443.341278 
	C620.020508,442.897339 619.931458,442.453400 620.002991,441.351898 
	C619.963074,440.905670 619.923218,440.459473 620.314270,439.277344 
	C622.716248,431.981781 619.886414,425.966766 615.393066,420.573029 
	C610.305115,414.465485 603.109070,412.094299 595.640320,410.833923 
	C571.834900,406.816681 547.853088,407.937683 522.999268,408.509644 
	C514.330994,408.641663 505.662689,408.773682 496.081207,408.675110 
	C487.035645,408.736969 477.990112,408.798859 468.051483,408.654541 
	C464.780670,408.654541 461.509857,408.654541 458.334717,408.654541 
	C455.972809,417.867889 453.794373,426.365448 451.475891,435.409393 
	C461.691895,435.409393 471.422668,435.409393 482.029846,435.612762 
	C485.359558,435.579956 488.689270,435.547150 492.917297,435.790161 
	C505.258057,435.749115 517.598816,435.708038 530.823120,435.802307 
	C532.906189,435.770081 534.989319,435.737854 537.956665,435.958496 
	C542.559082,435.872314 547.161560,435.786133 552.681458,435.827271 
	C554.836487,435.771759 556.991516,435.716248 559.800476,435.917267 
	C560.494751,435.864410 561.189026,435.811584 562.696472,435.931152 
	C565.421326,436.492035 568.146240,437.052887 571.412720,438.021240 
	C571.961304,438.274872 572.671814,438.387512 573.033997,438.803467 
	C577.828552,444.310547 577.477661,450.474823 571.347656,459.188049 
	C570.184753,460.036194 569.021912,460.884308 567.257568,461.940704 
	C566.508728,462.310730 565.759827,462.680786 564.404358,463.056183 
	C564.128784,463.338898 563.853210,463.621582 562.740479,463.733429 
	C557.140442,464.288818 551.540344,464.844238 545.020691,465.255493 
	C528.724670,465.431244 512.428711,465.607025 495.237549,465.452850 
	C493.326447,465.356171 491.415344,465.259491 489.420410,465.158569 
	C489.706055,462.204010 489.955109,459.628265 490.939240,456.571991 
	C490.163666,455.768829 489.395264,454.273438 488.611481,454.265350 
	C474.858429,454.123016 461.103516,454.162445 446.964691,454.162445 
	C443.970795,466.635254 441.050232,478.802490 437.684998,491.600037 
	C435.944183,498.689331 434.203369,505.778625 432.041168,513.391846 
M1014.775269,498.793182 
	C1026.071411,513.841187 1037.312500,528.931091 1048.735229,543.882385 
	C1050.113281,545.685974 1052.444580,547.906555 1054.382324,547.954041 
	C1068.518066,548.300598 1082.666260,548.140686 1097.260620,548.140686 
	C1109.105591,501.364746 1120.834351,455.048157 1132.738037,408.040680 
	C1118.752563,408.040680 1105.796509,407.939789 1092.848511,408.216583 
	C1091.712280,408.240875 1090.010742,410.580841 1089.613403,412.114960 
	C1083.315796,436.431091 1077.189209,460.791504 1071.021973,485.141418 
	C1069.753052,490.151184 1068.478638,495.159546 1066.975952,501.077606 
	C1063.544800,496.755920 1060.703979,493.318115 1058.013550,489.766327 
	C1038.411133,463.887695 1018.813049,438.005615 999.295105,412.063385 
	C997.216614,409.300659 994.913635,407.961853 991.366150,408.013519 
	C979.535889,408.185883 967.700928,408.177612 955.869812,408.047638 
	C952.616821,408.011871 951.403748,409.131744 950.604431,412.384064 
	C942.857727,443.904419 934.891479,475.370880 926.957764,506.845154 
	C923.523438,520.469543 920.018616,534.076233 916.474365,547.970703 
	C930.940002,547.970703 944.893677,547.970703 959.247070,547.970703 
	C966.871826,517.462463 974.467957,487.068726 982.230591,456.008728 
	C993.232727,470.481903 1003.780701,484.357635 1014.775269,498.793182 
z"/>
<path fill="#EDEDED" opacity="1.000000" stroke="none" 
	d="
M1014.552002,498.513306 
	C1003.780701,484.357635 993.232727,470.481903 982.230591,456.008728 
	C974.467957,487.068726 966.871826,517.462463 959.247070,547.970703 
	C944.893677,547.970703 930.940002,547.970703 916.474365,547.970703 
	C920.018616,534.076233 923.523438,520.469543 926.957764,506.845154 
	C934.891479,475.370880 942.857727,443.904419 950.604431,412.384064 
	C951.403748,409.131744 952.616821,408.011871 955.869812,408.047638 
	C967.700928,408.177612 979.535889,408.185883 991.366150,408.013519 
	C994.913635,407.961853 997.216614,409.300659 999.295105,412.063385 
	C1018.813049,438.005615 1038.411133,463.887695 1058.013550,489.766327 
	C1060.703979,493.318115 1063.544800,496.755920 1066.975952,501.077606 
	C1068.478638,495.159546 1069.753052,490.151184 1071.021973,485.141418 
	C1077.189209,460.791504 1083.315796,436.431091 1089.613403,412.114960 
	C1090.010742,410.580841 1091.712280,408.240875 1092.848511,408.216583 
	C1105.796509,407.939789 1118.752563,408.040680 1132.738037,408.040680 
	C1120.834351,455.048157 1109.105591,501.364746 1097.260620,548.140686 
	C1082.666260,548.140686 1068.518066,548.300598 1054.382324,547.954041 
	C1052.444580,547.906555 1050.113281,545.685974 1048.735229,543.882385 
	C1037.312500,528.931091 1026.071411,513.841187 1014.552002,498.513306 
M1077.380859,473.427216 
	C1075.165405,484.198730 1072.950073,494.970245 1070.658203,506.548523 
	C1070.658203,508.088806 1070.658203,509.629089 1070.658203,512.535583 
	C1067.314331,508.129181 1064.724854,504.716797 1062.007080,500.717438 
	C1054.025024,490.443665 1046.042847,480.169922 1037.784790,469.287659 
	C1032.589600,462.428345 1028.932983,454.269470 1017.820923,454.426117 
	C1009.875916,454.538025 1001.922913,451.924561 993.915771,451.066345 
	C991.423462,450.799194 988.742188,452.295166 985.367554,453.191010 
	C989.673340,459.429352 993.320801,464.713959 997.267273,470.609039 
	C1007.090820,483.412659 1016.914368,496.216278 1027.075073,509.627441 
	C1035.342407,520.646484 1043.552979,531.709412 1051.957153,542.623047 
	C1052.891235,543.835999 1054.921143,544.832458 1056.457764,544.853760 
	C1067.579956,545.008301 1078.706055,544.838379 1089.830688,544.879456 
	C1093.339478,544.892395 1095.046753,543.560669 1095.858521,539.933472 
	C1098.560547,527.863098 1101.654175,515.880371 1104.931152,503.275604 
	C1107.617188,492.853790 1110.303101,482.431946 1113.164673,471.247864 
	C1115.045532,463.509888 1117.106689,455.807373 1118.644531,448.001831 
	C1118.927612,446.564789 1117.212036,443.352173 1116.213013,443.262787 
	C1108.124756,442.539032 1099.981079,442.046204 1091.868652,442.208374 
	C1089.263428,442.260437 1084.985229,443.952637 1084.411743,445.804565 
	C1081.674561,454.645020 1079.948242,463.798492 1077.380859,473.427216 
M974.427368,472.239899 
	C975.942688,463.500275 977.458008,454.760651 978.998840,446.000031 
	C978.998840,446.000031 979.019653,445.974487 979.633850,446.283600 
	C981.408752,447.268311 983.418518,449.374237 984.921326,449.059570 
	C996.459412,446.643280 1007.550842,447.768646 1018.458435,452.009094 
	C1020.013977,452.613861 1021.786255,452.661407 1023.745361,453.019318 
	C1022.026794,445.530975 1015.317322,440.368378 1007.681396,439.984467 
	C994.384460,439.316040 981.075073,441.009613 967.740540,439.175354 
	C961.944458,438.378082 955.829102,439.403259 949.934204,440.176208 
	C948.471130,440.368073 946.573181,442.596558 946.118042,444.234314 
	C943.556458,453.450745 941.374268,462.772644 938.718384,472.733063 
	C936.437683,482.453857 934.156982,492.174652 931.573547,502.597473 
	C927.880005,516.511230 924.186401,530.425049 920.374878,544.782898 
	C931.575928,544.782898 941.884216,544.649780 952.185852,544.854797 
	C955.812988,544.927002 957.008972,543.313904 957.759521,540.096924 
	C961.037170,526.048096 964.529358,512.049377 968.253784,497.314575 
	C970.192139,489.181610 972.130493,481.048645 974.427368,472.239899 
z"/>
<path fill="#BB8E3A" opacity="1.000000" stroke="none" 
	d="
M583.056396,540.729919 
	C570.970093,546.425598 558.063477,547.918091 544.147095,547.811646 
	C532.181213,546.967651 520.987305,546.268127 509.784943,546.085876 
	C503.208344,545.978882 496.618378,546.694763 489.580627,547.023682 
	C486.406586,546.992554 483.686340,546.978271 480.975159,546.565674 
	C482.663788,540.900513 480.606201,536.800659 477.386475,532.700623 
	C475.420746,530.197510 474.424561,526.932922 473.405518,523.938110 
	C476.102234,523.578064 478.390717,523.011475 480.669739,523.047302 
	C497.238983,523.308228 513.805786,523.884216 530.374451,523.925842 
	C535.920349,523.939758 541.469482,522.687744 547.392700,522.003052 
	C548.482056,521.441406 549.195862,520.891235 550.059875,520.205750 
	C550.210144,520.070496 550.603149,519.975159 550.603149,519.975159 
	C550.603149,519.975159 550.997742,520.063477 551.109802,520.208618 
	C551.491638,520.218079 551.761353,520.082397 552.161743,519.871155 
	C552.292358,519.795593 552.574036,519.903809 552.853271,519.840698 
	C553.418213,519.536865 553.704041,519.296082 554.253052,518.953003 
	C554.890259,518.865234 555.264282,518.879761 556.043335,518.932861 
	C561.935852,520.714355 567.639832,521.984680 571.314880,527.146667 
	C571.979004,528.079468 573.499878,528.564392 574.722961,528.907104 
	C578.679626,530.015747 582.731934,530.807739 586.632507,532.075256 
	C587.648132,532.405212 588.245300,534.023010 588.813354,535.305786 
	C586.746887,537.284790 584.901611,539.007324 583.056396,540.729919 
M577.487915,541.566467 
	C577.487915,541.566467 577.438293,541.476929 577.487915,541.566467 
z"/>
<path fill="#D9B35C" opacity="1.000000" stroke="none" 
	d="
M545.940308,465.399658 
	C551.540344,464.844238 557.140442,464.288818 563.437988,463.747772 
	C564.427246,463.524994 564.719055,463.287872 565.010864,463.050812 
	C565.759827,462.680786 566.508728,462.310730 567.717896,462.154541 
	C572.206238,465.530579 576.500793,468.418091 580.155823,471.964752 
	C582.139893,473.890045 583.424988,476.229919 586.675354,475.386536 
	C587.898682,476.221161 589.122070,477.055756 590.764526,478.382507 
	C594.830139,480.550507 598.476746,482.226379 602.123352,483.902252 
	C602.123352,483.902252 602.014404,483.977722 602.057129,484.292297 
	C605.195801,488.045746 606.822998,492.296356 606.583191,496.698395 
	C606.248535,502.841949 604.952209,508.933105 603.902954,514.746704 
	C600.069885,511.416443 596.729492,507.809082 592.655457,505.491302 
	C586.556702,502.021698 579.336487,500.464233 574.766785,494.481659 
	C574.492371,494.122437 573.933350,493.849213 573.473450,493.788391 
	C572.233887,493.624542 570.866638,493.286133 569.780029,493.669281 
	C569.345886,493.822357 569.473938,495.684631 569.417603,496.772583 
	C569.258545,499.846954 569.136536,502.923248 568.714722,506.149597 
	C567.545105,506.906342 566.660767,507.512268 565.476074,507.876465 
	C567.868164,496.120728 565.202942,492.247467 553.416138,490.524628 
	C552.269226,490.356964 551.131409,490.127167 549.774414,489.599182 
	C548.371643,488.850098 547.200500,488.120270 545.993530,488.055511 
	C537.656555,487.608215 529.312134,487.299622 521.036743,486.554565 
	C522.809448,481.968445 522.488647,479.238281 517.118835,478.028870 
	C511.698212,476.807983 506.480225,474.585785 501.279999,472.532379 
	C498.816864,471.559784 495.610413,470.893860 496.466064,466.995605 
	C509.060791,467.316681 521.187866,467.907715 533.312744,467.865143 
	C537.524780,467.850372 541.731262,466.266754 545.940308,465.399658 
z"/>
<path fill="#F7E397" opacity="1.000000" stroke="none" 
	d="
M537.072388,435.705627 
	C534.989319,435.737854 532.906189,435.770081 530.041870,435.516663 
	C520.185730,435.094849 511.110809,434.958679 502.365234,434.577637 
	C512.759521,433.886505 522.824890,433.449738 532.889282,432.990295 
	C538.862671,432.717590 541.884521,428.992920 540.823792,423.155945 
	C540.293152,420.236084 539.082825,417.330902 539.141968,414.438812 
	C539.226074,410.328400 537.233093,409.955627 533.934692,409.933990 
	C530.584717,409.912079 527.239319,409.187195 523.891907,408.770142 
	C547.853088,407.937683 571.834900,406.816681 595.640320,410.833923 
	C603.109070,412.094299 610.305115,414.465485 615.393066,420.573029 
	C619.886414,425.966766 622.716248,431.981781 619.735596,439.636719 
	C618.386780,439.744232 617.468994,439.681061 616.868896,439.211700 
	C609.810608,433.689972 601.707397,432.954620 593.179443,433.747406 
	C587.067505,434.315582 580.916504,434.486786 574.817322,435.151215 
	C573.428955,435.302429 572.182739,436.758362 570.871094,437.613770 
	C568.146240,437.052887 565.421326,436.492035 562.120056,435.646698 
	C560.744629,435.461761 559.945557,435.561279 559.146545,435.660767 
	C556.991516,435.716248 554.836487,435.771759 551.903625,435.559570 
	C546.441345,435.429779 541.756836,435.567719 537.072388,435.705627 
z"/>
<path fill="#D0A953" opacity="1.000000" stroke="none" 
	d="
M495.997528,467.016602 
	C495.610413,470.893860 498.816864,471.559784 501.279999,472.532379 
	C506.480225,474.585785 511.698212,476.807983 517.118835,478.028870 
	C522.488647,479.238281 522.809448,481.968445 520.606567,486.566315 
	C516.402771,487.977722 512.695801,488.985535 508.531616,490.102173 
	C499.831970,490.211029 491.589508,490.211029 483.327820,490.211029 
	C480.606934,500.775391 477.974030,510.998108 475.261414,521.309998 
	C475.181702,521.399170 475.383362,521.798218 475.383362,521.798218 
	C475.383362,521.798218 475.796570,521.639099 476.273621,521.578857 
	C500.171234,521.323608 523.591797,521.128662 547.009521,521.203979 
	C547.010193,521.654236 547.013672,521.834290 547.017090,522.014404 
	C541.469482,522.687744 535.920349,523.939758 530.374451,523.925842 
	C513.805786,523.884216 497.238983,523.308228 480.669739,523.047302 
	C478.390717,523.011475 476.102234,523.578064 473.084045,523.874878 
	C472.232910,522.255920 472.115845,520.627991 472.268372,518.731934 
	C473.711395,512.307556 474.884796,506.151215 476.366913,499.811340 
	C477.887726,496.240021 478.986176,492.805847 480.345032,489.478027 
	C481.608551,486.383698 480.676910,484.192596 477.813171,482.971283 
	C470.055328,479.662720 462.336731,476.205322 454.386902,473.423218 
	C448.858154,471.488403 445.554993,473.793060 444.096466,479.356812 
	C443.426605,481.912231 442.705933,484.454315 442.004486,487.001221 
	C442.000702,487.000000 442.002441,487.008545 441.681335,487.058105 
	C440.283417,488.394989 439.206543,489.682373 438.129669,490.969727 
	C441.050232,478.802490 443.970795,466.635254 446.964691,454.162445 
	C461.103516,454.162445 474.858429,454.123016 488.611481,454.265350 
	C489.395264,454.273438 490.163666,455.768829 490.261566,456.975342 
	C487.986298,460.593903 486.388733,463.809143 484.402466,467.806610 
	C489.217651,467.472717 492.599609,467.238190 495.989044,467.000610 
	C495.996521,466.997559 495.997528,467.016602 495.997528,467.016602 
z"/>
<path fill="#AC7D2C" opacity="1.000000" stroke="none" 
	d="
M471.998779,519.000000 
	C472.115845,520.627991 472.232910,522.255920 472.671448,523.947144 
	C474.424561,526.932922 475.420746,530.197510 477.386475,532.700623 
	C480.606201,536.800659 482.663788,540.900513 480.512634,546.572632 
	C475.066986,547.433228 470.092957,547.888672 465.118896,548.344116 
	C451.262177,548.344116 437.405457,548.344116 422.876190,548.344116 
	C423.725677,545.196716 424.483124,542.390320 425.764832,539.167419 
	C431.654724,531.004333 433.881958,522.193726 435.160217,512.674561 
	C436.198242,509.885162 437.091888,507.433533 438.415955,504.990723 
	C444.881378,506.530548 451.191162,507.404999 456.872070,509.782257 
	C462.257080,512.035767 466.983032,515.864136 471.998779,519.000000 
z"/>
<path fill="#AC7D2C" opacity="1.000000" stroke="none" 
	d="
M649.072327,548.320435 
	C637.839050,548.320435 626.605835,548.320435 614.397888,548.320435 
	C616.424805,540.488708 618.282349,533.311279 620.603394,526.119446 
	C621.734558,525.757568 622.798889,525.565796 623.006287,525.037537 
	C624.435974,521.396240 625.686829,517.684631 627.389893,514.009949 
	C639.547363,516.670288 650.377991,521.261841 659.649475,529.166992 
	C663.539062,532.483337 667.731812,535.484375 671.314697,539.097046 
	C672.474304,540.266235 672.726501,543.089966 672.247070,544.843262 
	C671.965759,545.872253 669.463989,546.748352 667.893250,546.878967 
	C664.270264,547.180237 660.595886,546.820862 656.961853,547.045410 
	C654.315857,547.208923 651.701050,547.877197 649.072327,548.320435 
z"/>
<path fill="#C49A48" opacity="1.000000" stroke="none" 
	d="
M667.034546,516.027100 
	C666.939392,517.472534 666.844299,518.918030 666.699280,521.121399 
	C670.908997,521.121399 675.048950,521.121399 679.790100,521.592224 
	C684.590576,522.381226 688.789978,522.699463 693.034607,523.359619 
	C698.599182,528.232788 703.683105,533.516724 709.782532,537.045227 
	C714.258118,539.634216 717.218567,541.489746 714.481201,546.938538 
	C705.333984,546.939758 696.649719,546.930359 688.022888,546.562927 
	C690.390137,540.815247 689.373169,536.885437 684.626282,533.390198 
	C681.827393,531.329224 679.080078,529.112061 676.023132,527.512390 
	C673.083984,525.974304 669.848755,524.597534 666.607788,524.162842 
	C663.793030,523.785339 662.565002,523.187805 661.420349,520.307983 
	C658.870544,513.892700 655.128235,507.931976 647.625671,506.459808 
	C641.487427,505.255371 635.205811,504.780975 628.989868,503.570557 
	C629.993042,497.770538 630.994141,492.382812 631.997620,486.997559 
	C632.000000,487.000000 631.995117,486.996338 632.394409,486.943909 
	C641.709412,484.471313 648.714111,489.745667 656.199707,492.856842 
	C660.302368,494.562012 664.131409,496.925720 668.017639,499.394531 
	C667.033936,504.255096 665.998047,508.695374 665.304871,513.188477 
	C665.175659,514.025818 666.422668,515.075439 667.034546,516.027100 
z"/>
<path fill="#F3D981" opacity="1.000000" stroke="none" 
	d="
M571.141907,437.817505 
	C572.182739,436.758362 573.428955,435.302429 574.817322,435.151215 
	C580.916504,434.486786 587.067505,434.315582 593.179443,433.747406 
	C601.707397,432.954620 609.810608,433.689972 616.868896,439.211700 
	C617.468994,439.681061 618.386780,439.744232 619.520142,440.004639 
	C619.923218,440.459473 619.963074,440.905670 619.732544,441.848480 
	C619.627747,442.898102 619.793335,443.451111 619.958984,444.004150 
	C618.755371,447.843750 617.990234,451.895874 616.254150,455.477386 
	C612.936646,462.321472 607.379639,467.149506 600.430786,470.395630 
	C601.034119,468.667328 601.874268,467.197601 602.714417,465.727875 
	C601.171570,464.886108 599.691406,463.878754 598.063171,463.262543 
	C597.028442,462.870880 595.763794,462.927155 594.619507,463.012848 
	C590.006348,463.358368 585.852783,462.478729 581.948669,459.712830 
	C578.963684,457.598114 575.461304,456.647552 571.946045,458.996918 
	C577.477661,450.474823 577.828552,444.310547 573.033997,438.803467 
	C572.671814,438.387512 571.961304,438.274872 571.141907,437.817505 
z"/>
<path fill="#AC7D2C" opacity="1.000000" stroke="none" 
	d="
M802.110046,548.268494 
	C790.283325,548.268494 778.456604,548.268494 765.838257,548.268494 
	C766.992249,544.082947 768.017456,540.364563 769.536865,536.201904 
	C771.310669,534.093445 773.151917,532.611511 773.762207,530.730225 
	C775.438782,525.562012 776.598694,520.226135 777.970947,514.634399 
	C777.998535,513.882874 778.018311,513.453491 778.434692,513.018433 
	C784.158630,515.786255 789.862610,518.028198 794.717712,521.468262 
	C800.758362,525.748352 805.698608,531.630188 811.872925,535.656738 
	C816.414307,538.618347 818.608154,541.707092 817.472900,546.935913 
	C812.043823,547.384583 807.076965,547.826538 802.110046,548.268494 
z"/>
<path fill="#F3D981" opacity="1.000000" stroke="none" 
	d="
M682.058350,452.204010 
	C681.228577,456.464783 680.389832,460.723816 679.575256,464.987488 
	C679.369202,466.066101 679.240479,467.159485 678.716797,468.292908 
	C678.460510,465.077362 678.200928,461.753601 678.740295,458.564972 
	C679.966919,451.314453 678.184082,448.751129 670.937866,447.084778 
	C665.515137,445.837708 660.264648,443.858978 654.874329,442.447388 
	C650.966614,441.424103 646.955444,440.795898 642.969116,439.975220 
	C642.947754,439.958893 642.905151,439.926178 642.843628,439.753387 
	C642.654053,439.366638 642.490173,439.184998 642.290405,439.035706 
	C642.445496,438.200226 642.600525,437.364746 643.235352,436.058533 
	C645.819214,429.680695 648.086121,423.825287 649.981567,417.852020 
	C651.905701,411.788605 653.508118,411.128754 658.478516,414.935333 
	C659.005249,415.338745 659.584473,415.673004 660.119080,416.066895 
	C667.045410,421.170593 674.090393,426.124420 680.839050,431.453369 
	C684.120117,434.044250 685.615906,437.363068 683.708313,441.965515 
	C682.420532,445.072571 682.558228,448.770416 682.058350,452.204010 
z"/>
<path fill="#F3D981" opacity="1.000000" stroke="none" 
	d="
M523.445557,408.639893 
	C527.239319,409.187195 530.584717,409.912079 533.934692,409.933990 
	C537.233093,409.955627 539.226074,410.328400 539.141968,414.438812 
	C539.082825,417.330902 540.293152,420.236084 540.823792,423.155945 
	C541.884521,428.992920 538.862671,432.717590 532.889282,432.990295 
	C522.824890,433.449738 512.759521,433.886505 501.923706,434.621094 
	C498.108246,435.111053 495.063599,435.312714 492.018982,435.514343 
	C488.689270,435.547150 485.359558,435.579956 481.703064,435.202087 
	C482.893494,434.485138 484.410736,434.178925 486.390167,433.911316 
	C490.377533,433.562073 494.768524,434.338348 497.223907,432.512177 
	C500.860931,429.807190 503.376495,425.739441 503.177887,420.169128 
	C502.887451,412.024872 504.457703,411.029846 512.677429,410.975555 
	C514.015625,410.966705 515.353149,410.855774 516.690979,410.792023 
	C516.682617,410.559387 516.674316,410.326782 516.666016,410.094147 
	C511.067688,410.094147 505.469391,410.094147 499.502930,410.082336 
	C498.398285,410.057709 497.661774,410.044861 496.948730,409.750793 
	C496.979645,409.281616 496.987030,409.093628 496.994415,408.905701 
	C505.662689,408.773682 514.330994,408.641663 523.445557,408.639893 
z"/>
<path fill="#BB8E3A" opacity="1.000000" stroke="none" 
	d="
M628.987793,503.982910 
	C635.205811,504.780975 641.487427,505.255371 647.625671,506.459808 
	C655.128235,507.931976 658.870544,513.892700 661.420349,520.307983 
	C662.565002,523.187805 663.793030,523.785339 666.607788,524.162842 
	C669.848755,524.597534 673.083984,525.974304 676.023132,527.512390 
	C679.080078,529.112061 681.827393,531.329224 684.626282,533.390198 
	C689.373169,536.885437 690.390137,540.815247 687.566772,546.581543 
	C683.075867,547.403015 679.098450,547.847839 675.121033,548.292603 
	C666.737366,548.381897 658.353699,548.471130 649.521179,548.440430 
	C651.701050,547.877197 654.315857,547.208923 656.961853,547.045410 
	C660.595886,546.820862 664.270264,547.180237 667.893250,546.878967 
	C669.463989,546.748352 671.965759,545.872253 672.247070,544.843262 
	C672.726501,543.089966 672.474304,540.266235 671.314697,539.097046 
	C667.731812,535.484375 663.539062,532.483337 659.649475,529.166992 
	C650.377991,521.261841 639.547363,516.670288 627.390015,513.602661 
	C627.321655,510.783173 627.648010,508.385162 628.089233,505.730560 
	C628.465393,504.976929 628.726562,504.479919 628.987793,503.982910 
z"/>
<path fill="#E4C368" opacity="1.000000" stroke="none" 
	d="
M642.990417,439.991516 
	C646.955444,440.795898 650.966614,441.424103 654.874329,442.447388 
	C660.264648,443.858978 665.515137,445.837708 670.937866,447.084778 
	C678.184082,448.751129 679.966919,451.314453 678.740295,458.564972 
	C678.200928,461.753601 678.460510,465.077362 678.610291,468.654541 
	C675.423157,482.053162 671.950439,495.128662 668.573120,508.228699 
	C667.968323,510.574463 667.757751,513.021790 667.199829,515.724670 
	C666.422668,515.075439 665.175659,514.025818 665.304871,513.188477 
	C665.998047,508.695374 667.033936,504.255096 668.270508,499.130188 
	C669.401123,494.641602 670.212769,490.819458 671.288940,486.725464 
	C672.408142,482.084198 672.831177,477.568756 674.245361,473.388580 
	C675.526611,469.601257 673.824280,467.280609 671.204224,465.948822 
	C663.105713,461.832336 654.850098,457.994690 646.490234,454.437317 
	C643.074341,452.983765 640.298096,454.452118 639.390076,458.368103 
	C638.569214,461.908325 637.802673,465.461151 636.748047,469.269287 
	C634.987610,475.352203 633.491333,481.174255 631.995117,486.996338 
	C631.995117,486.996338 632.000000,487.000000 631.737427,486.982178 
	C631.128174,486.961121 630.781494,486.957947 630.434753,486.954773 
	C633.746887,473.094177 637.059082,459.233612 640.681274,445.387115 
	C641.098816,445.921692 641.206360,446.442200 641.313904,446.962708 
	C641.586304,446.902100 641.858704,446.841492 642.131042,446.780884 
	C641.822876,445.533295 641.514648,444.285706 641.206421,443.038116 
	C641.288086,442.446564 641.369751,441.855011 641.826660,441.204468 
	C642.464783,440.760803 642.727600,440.376160 642.990417,439.991516 
z"/>
<path fill="#D9B35C" opacity="1.000000" stroke="none" 
	d="
M496.925232,410.032013 
	C497.661774,410.044861 498.398285,410.057709 499.203064,410.338623 
	C495.041901,410.832306 490.812500,411.057892 487.292023,411.245697 
	C486.816528,419.133240 486.372223,426.502960 485.927948,433.872681 
	C484.410736,434.178925 482.893494,434.485138 481.264893,435.100403 
	C471.422668,435.409393 461.691895,435.409393 451.475891,435.409393 
	C453.794373,426.365448 455.972809,417.867889 458.334717,408.654541 
	C461.509857,408.654541 464.780670,408.654541 468.784393,409.073303 
	C478.653290,409.672058 487.789246,409.852051 496.925232,410.032013 
z"/>
<path fill="#E4C368" opacity="1.000000" stroke="none" 
	d="
M793.172424,444.039703 
	C793.123047,443.868896 793.073608,443.698120 793.382202,443.189392 
	C794.155029,441.900452 794.569824,440.949402 794.998108,439.668518 
	C795.028015,438.898926 795.044373,438.459137 795.404846,437.972382 
	C797.158630,437.942505 798.832947,437.463928 799.936951,438.053406 
	C810.984985,443.952759 822.042480,449.886871 830.024170,460.372314 
	C829.698059,462.501709 829.388123,464.245331 828.811096,466.225525 
	C828.984436,467.968628 829.424805,469.475189 829.865112,470.981720 
	C829.801208,471.545349 829.737244,472.108948 829.281433,472.931854 
	C828.795471,473.268097 828.609741,473.390839 828.621704,473.414825 
	C828.725586,473.622742 828.864868,473.812927 828.993652,474.008392 
	C826.855591,482.836121 824.717590,491.663818 822.007019,500.754517 
	C820.975281,501.007324 820.516113,500.997192 820.052979,500.666138 
	C820.058411,499.917389 820.067749,499.489471 820.384338,498.992126 
	C821.113647,498.274902 821.535645,497.627136 821.967163,496.607605 
	C821.993164,495.492279 822.009766,494.748749 822.256714,493.822083 
	C822.636902,493.082886 822.786804,492.526733 822.951294,491.599670 
	C822.980835,490.486572 822.995728,489.744385 823.285278,488.705750 
	C824.090637,484.334595 824.152771,480.125732 825.271179,476.219299 
	C826.652283,471.395477 824.760010,468.503906 820.890320,466.483582 
	C814.191101,462.986053 807.243164,459.949310 800.646912,456.275146 
	C795.586731,453.456573 793.240234,453.888214 791.438416,459.308411 
	C789.824524,464.163605 788.483459,469.109467 787.012329,474.422058 
	C785.997314,479.549866 784.992065,484.270996 783.850342,489.302429 
	C783.143982,491.078186 782.574036,492.543640 781.790283,493.865692 
	C781.187134,493.162476 780.797791,492.602661 780.408386,492.042877 
	C783.606567,478.873535 786.804688,465.704163 790.520325,452.104736 
	C792.526550,449.347015 795.418396,447.411591 793.172424,444.039703 
z"/>
<path fill="#F7E397" opacity="1.000000" stroke="none" 
	d="
M682.396606,452.078156 
	C682.558228,448.770416 682.420532,445.072571 683.708313,441.965515 
	C685.615906,437.363068 684.120117,434.044250 680.839050,431.453369 
	C674.090393,426.124420 667.045410,421.170593 660.119080,416.066895 
	C659.584473,415.673004 659.005249,415.338745 658.478516,414.935333 
	C653.508118,411.128754 651.905701,411.788605 649.981567,417.852020 
	C648.086121,423.825287 645.819214,429.680695 643.420349,435.791931 
	C645.071350,427.915741 646.880798,419.797852 649.087341,411.789368 
	C649.489502,410.329590 651.492493,408.281616 652.790222,408.256622 
	C666.245972,407.997284 679.708740,408.097046 693.981567,408.097046 
	C692.188538,415.696075 690.678833,422.587280 688.920410,429.414429 
	C686.977478,436.957672 684.806519,444.442200 682.396606,452.078156 
z"/>
<path fill="#D0A953" opacity="1.000000" stroke="none" 
	d="
M902.897339,545.954468 
	C901.748657,546.699280 900.629272,548.030701 899.446411,548.089661 
	C893.628357,548.379456 887.793457,548.331360 881.240234,547.972412 
	C872.341980,547.022827 864.167908,546.503296 856.003296,545.621582 
	C857.135254,542.425598 856.342346,540.296936 853.953796,538.388977 
	C850.862061,535.919312 848.222473,532.834839 844.974792,530.621765 
	C841.014709,527.923218 837.854248,523.558289 832.185486,523.836914 
	C831.509583,523.870178 830.748962,522.181946 830.027649,521.291687 
	C832.415161,521.242920 834.802734,521.194153 837.770020,521.612793 
	C839.907043,522.386108 841.459961,522.927856 843.022339,522.956604 
	C849.338379,523.072571 855.657288,523.030518 862.044983,523.374512 
	C863.280457,524.844971 864.393921,526.047241 865.619934,527.121033 
	C876.059204,536.263489 887.298096,543.596191 901.998108,543.325623 
	C902.301514,544.419006 902.599426,545.186707 902.897339,545.954468 
z"/>
<path fill="#D0A953" opacity="1.000000" stroke="none" 
	d="
M714.944214,546.927856 
	C717.218567,541.489746 714.258118,539.634216 709.782532,537.045227 
	C703.683105,533.516724 698.599182,528.232788 693.504272,523.345947 
	C702.288208,522.991089 710.647766,522.991882 719.013916,523.358948 
	C721.095947,529.936096 726.038330,533.132812 731.371521,536.306030 
	C737.173889,539.758301 742.481262,544.042419 748.004456,547.963867 
	C744.319885,548.095032 740.635254,548.226135 736.209167,547.940918 
	C728.626526,547.325684 721.785339,547.126770 714.944214,546.927856 
z"/>
<path fill="#F7E397" opacity="1.000000" stroke="none" 
	d="
M795.060730,438.019348 
	C795.044373,438.459137 795.028015,438.898926 794.746826,439.664886 
	C794.146912,439.991516 793.811768,439.991974 793.476624,439.992432 
	C795.908569,430.328064 798.237488,420.635071 800.902771,411.035492 
	C801.235474,409.837189 803.335693,408.341522 804.637024,408.321991 
	C817.941650,408.122375 831.250427,408.199799 845.489929,408.199799 
	C842.866028,419.031891 840.429871,429.089081 837.660889,439.236877 
	C837.328186,439.327484 836.985596,438.990753 836.986755,438.563904 
	C837.306641,435.848724 837.303040,433.453613 838.017517,431.296295 
	C839.173279,427.806610 838.106812,426.277771 834.637329,425.281097 
	C826.875244,423.051483 819.307983,420.863434 812.766479,415.214447 
	C806.588379,409.879242 803.513611,411.466339 800.790833,419.480774 
	C798.711121,425.602661 796.958679,431.835724 795.060730,438.019348 
z"/>
<path fill="#D9B35C" opacity="1.000000" stroke="none" 
	d="
M748.398193,548.045593 
	C742.481262,544.042419 737.173889,539.758301 731.371521,536.306030 
	C726.038330,533.132812 721.095947,529.936096 719.481689,523.356079 
	C731.924377,522.981506 743.905823,522.976074 755.891846,523.212402 
	C755.896484,523.454224 755.979675,523.930664 755.979675,523.930664 
	C755.992615,524.117004 756.005615,524.303406 755.803589,524.857361 
	C755.697510,525.480164 755.806519,525.735291 755.915527,525.990417 
	C754.266418,533.117737 752.648438,540.252869 750.887390,547.352356 
	C750.786560,547.758972 749.517395,547.875671 748.398193,548.045593 
z"/>
<path fill="#E4C368" opacity="1.000000" stroke="none" 
	d="
M903.048889,545.707397 
	C902.599426,545.186707 902.301514,544.419006 902.005310,542.905029 
	C901.896057,536.259155 900.314758,535.261658 892.331604,533.849304 
	C889.154541,533.287231 884.543457,531.857422 883.556641,529.551270 
	C880.447510,522.284668 874.900513,522.686890 868.923462,522.985535 
	C866.612122,523.101013 864.291504,523.031860 861.975159,523.046814 
	C855.657288,523.030518 849.338379,523.072571 843.022339,522.956604 
	C841.459961,522.927856 839.907043,522.386108 838.203613,521.730469 
	C861.635559,521.380798 885.213623,521.380798 909.535950,521.380798 
	C907.358154,529.657959 905.279297,537.559082 903.048889,545.707397 
z"/>
<path fill="#C49A48" opacity="1.000000" stroke="none" 
	d="
M829.602173,521.191040 
	C830.748962,522.181946 831.509583,523.870178 832.185486,523.836914 
	C837.854248,523.558289 841.014709,527.923218 844.974792,530.621765 
	C848.222473,532.834839 850.862061,535.919312 853.953796,538.388977 
	C856.342346,540.296936 857.135254,542.425598 855.535522,545.630371 
	C848.024902,546.277039 840.991333,546.552673 834.024841,546.487305 
	C836.502747,543.044312 836.214966,540.581604 833.294373,537.605530 
	C828.854065,533.081055 825.040344,527.941650 821.287842,523.044556 
	C822.398743,522.471924 823.182373,521.918152 823.965942,521.364380 
	C825.702820,521.273071 827.439758,521.181763 829.602173,521.191040 
z"/>
<path fill="#E4C368" opacity="1.000000" stroke="none" 
	d="
M571.646851,459.092468 
	C575.461304,456.647552 578.963684,457.598114 581.948669,459.712830 
	C585.852783,462.478729 590.006348,463.358368 594.619507,463.012848 
	C595.763794,462.927155 597.028442,462.870880 598.063171,463.262543 
	C599.691406,463.878754 601.171570,464.886108 602.714417,465.727875 
	C601.874268,467.197601 601.034119,468.667328 600.089478,470.455719 
	C599.984985,470.774384 599.876526,471.045166 599.756348,471.075409 
	C599.636230,471.105652 599.751526,471.127136 599.751526,471.127136 
	C595.641602,472.516602 591.531738,473.906067 587.048584,475.341034 
	C583.424988,476.229919 582.139893,473.890045 580.155823,471.964752 
	C576.500793,468.418091 572.206238,465.530579 568.018616,462.050385 
	C569.021912,460.884308 570.184753,460.036194 571.646851,459.092468 
z"/>
<path fill="#E4C368" opacity="1.000000" stroke="none" 
	d="
M604.067322,515.046692 
	C604.952209,508.933105 606.248535,502.841949 606.583191,496.698395 
	C606.822998,492.296356 605.195801,488.045746 602.098816,484.240845 
	C609.237488,488.379639 610.754089,495.562469 610.000732,502.995178 
	C608.252930,520.239441 600.069763,533.357666 583.397217,540.663757 
	C584.901611,539.007324 586.746887,537.284790 589.116333,535.160461 
	C595.185730,531.627991 598.419373,526.573914 601.320190,520.816406 
	C602.406860,518.751099 603.237122,516.898865 604.067322,515.046692 
z"/>
<path fill="#E4C368" opacity="1.000000" stroke="none" 
	d="
M755.887207,522.970642 
	C743.905823,522.976074 731.924377,522.981506 719.475159,522.989746 
	C710.647766,522.991882 702.288208,522.991089 693.458984,523.003967 
	C688.789978,522.699463 684.590576,522.381226 680.246948,521.721558 
	C704.864685,521.334595 729.626709,521.279968 754.388733,521.280640 
	C755.277832,521.280640 756.166870,521.825256 756.694946,522.508545 
	C756.333984,522.900940 755.887207,522.970642 755.887207,522.970642 
z"/>
<path fill="#D9B35C" opacity="1.000000" stroke="none" 
	d="
M490.034424,547.040466 
	C496.618378,546.694763 503.208344,545.978882 509.784943,546.085876 
	C520.987305,546.268127 532.181213,546.967651 543.686401,547.728088 
	C526.327942,548.194031 508.661774,548.381653 490.543945,548.238647 
	C490.041534,547.620972 490.022247,547.331787 490.034424,547.040466 
z"/>
<path fill="#F3D981" opacity="1.000000" stroke="none" 
	d="
M545.480469,465.327576 
	C541.731262,466.266754 537.524780,467.850372 533.312744,467.865143 
	C521.187866,467.907715 509.060791,467.316681 496.466064,466.995605 
	C495.997528,467.016602 495.996521,466.997559 496.016937,466.796722 
	C496.127045,466.331635 496.158813,466.060608 496.132690,465.782806 
	C512.428711,465.607025 528.724670,465.431244 545.480469,465.327576 
z"/>
<path fill="#D9B35C" opacity="1.000000" stroke="none" 
	d="
M714.481201,546.938538 
	C721.785339,547.126770 728.626526,547.325684 735.762329,547.831177 
	C716.043640,548.261902 696.030273,548.386047 675.568970,548.401428 
	C679.098450,547.847839 683.075867,547.403015 687.509399,546.939575 
	C696.649719,546.930359 705.333984,546.939758 714.481201,546.938538 
z"/>
<path fill="#E4C368" opacity="1.000000" stroke="none" 
	d="
M833.957825,546.828369 
	C840.991333,546.552673 848.024902,546.277039 855.526123,545.992615 
	C864.167908,546.503296 872.341980,547.022827 880.792603,547.834839 
	C862.348938,548.184570 843.628784,548.241821 824.490356,547.944214 
	C824.080139,547.415833 824.088074,547.242310 824.539124,547.064819 
	C827.974121,546.983276 830.966003,546.905823 833.957825,546.828369 
z"/>
<path fill="#BB8E3A" opacity="1.000000" stroke="none" 
	d="
M435.015808,513.012329 
	C433.881958,522.193726 431.654724,531.004333 426.001343,538.843506 
	C427.822815,530.421326 429.932007,521.906616 432.677429,513.161560 
	C433.881042,512.958252 434.448425,512.985291 435.015808,513.012329 
z"/>
<path fill="#C49A48" opacity="1.000000" stroke="none" 
	d="
M435.160217,512.674561 
	C434.448425,512.985291 433.881042,512.958252 432.888092,512.899597 
	C434.203369,505.778625 435.944183,498.689331 437.907349,491.284882 
	C439.206543,489.682373 440.283417,488.394989 441.673553,487.456177 
	C440.653076,493.530426 439.319305,499.256165 437.985535,504.981903 
	C437.091888,507.433533 436.198242,509.885162 435.160217,512.674561 
z"/>
<path fill="#D9B35C" opacity="1.000000" stroke="none" 
	d="
M820.056885,500.987030 
	C820.516113,500.997192 820.975281,501.007324 821.778564,501.033691 
	C820.699219,507.513000 819.275757,513.976135 817.897217,521.151855 
	C817.966309,522.252991 817.990540,522.641602 817.701050,523.164062 
	C813.476074,522.930664 813.449524,522.862732 815.015503,516.645874 
	C816.395752,511.174500 817.700317,506.088257 819.267883,500.999756 
	C819.706238,500.994019 819.881531,500.990540 820.056885,500.987030 
z"/>
<path fill="#D0A953" opacity="1.000000" stroke="none" 
	d="
M780.204590,492.369446 
	C780.797791,492.602661 781.187134,493.162476 781.792603,494.292053 
	C781.998535,496.566681 781.988281,498.271606 781.713867,500.233368 
	C780.312500,504.668213 779.175232,508.846191 778.038086,513.024170 
	C778.018311,513.453491 777.998535,513.882874 777.578125,514.648560 
	C776.389404,515.011047 775.601318,515.037048 774.813232,515.063049 
	C776.542419,507.607391 778.271545,500.151733 780.204590,492.369446 
z"/>
<path fill="#BB8E3A" opacity="1.000000" stroke="none" 
	d="
M774.584290,515.340088 
	C775.601318,515.037048 776.389404,515.011047 777.570312,514.970825 
	C776.598694,520.226135 775.438782,525.562012 773.762207,530.730225 
	C773.151917,532.611511 771.310669,534.093445 769.728271,535.853455 
	C771.068787,529.171936 772.712036,522.394470 774.584290,515.340088 
z"/>
<path fill="#F7E397" opacity="1.000000" stroke="none" 
	d="
M829.078125,465.988983 
	C829.388123,464.245331 829.698059,462.501709 830.284302,460.098022 
	C832.702271,452.622253 834.843933,445.806488 836.985596,438.990753 
	C836.985596,438.990753 837.328186,439.327484 837.494507,439.500793 
	C836.007141,446.608978 834.353394,453.543854 832.406982,460.863831 
	C832.114258,461.248962 832.082886,461.653046 832.082886,461.653046 
	C831.842529,462.981384 831.602173,464.309692 830.861023,465.818207 
	C829.932800,465.995239 829.505493,465.992126 829.078125,465.988983 
z"/>
<path fill="#C49A48" opacity="1.000000" stroke="none" 
	d="
M627.974365,505.987183 
	C627.648010,508.385162 627.321655,510.783173 626.995239,513.588379 
	C625.686829,517.684631 624.435974,521.396240 623.006287,525.037537 
	C622.798889,525.565796 621.734558,525.757568 620.828613,525.849609 
	C622.060791,519.556213 623.531189,513.518433 625.511230,507.131531 
	C626.672058,506.517365 627.323181,506.252289 627.974365,505.987183 
z"/>
<path fill="#C49A48" opacity="1.000000" stroke="none" 
	d="
M489.580627,547.023682 
	C490.022247,547.331787 490.041534,547.620972 490.095947,548.126038 
	C482.070587,548.418762 474.041595,548.493530 465.565735,548.456177 
	C470.092957,547.888672 475.066986,547.433228 480.503540,546.970886 
	C483.686340,546.978271 486.406586,546.992554 489.580627,547.023682 
z"/>
<path fill="#D0A953" opacity="1.000000" stroke="none" 
	d="
M628.089233,505.730560 
	C627.323181,506.252289 626.672058,506.517365 625.670105,506.828491 
	C626.892029,500.465607 628.464722,494.056732 630.236084,487.301300 
	C630.781494,486.957947 631.128174,486.961121 631.735107,486.979736 
	C630.994141,492.382812 629.993042,497.770538 628.989868,503.570557 
	C628.726562,504.479919 628.465393,504.976929 628.089233,505.730560 
z"/>
<path fill="#D9B35C" opacity="1.000000" stroke="none" 
	d="
M495.685120,465.617828 
	C496.158813,466.060608 496.127045,466.331635 496.009460,466.799774 
	C492.599609,467.238190 489.217651,467.472717 484.402466,467.806610 
	C486.388733,463.809143 487.986298,460.593903 489.894012,457.215607 
	C489.955109,459.628265 489.706055,462.204010 489.420410,465.158569 
	C491.415344,465.259491 493.326447,465.356171 495.685120,465.617828 
z"/>
<path fill="#C49A48" opacity="1.000000" stroke="none" 
	d="
M824.095947,547.068848 
	C824.088074,547.242310 824.080139,547.415833 824.029297,547.846436 
	C816.991638,548.233704 809.996887,548.364014 802.556152,548.381409 
	C807.076965,547.826538 812.043823,547.384583 817.912964,546.959534 
	C820.575378,547.007202 822.335693,547.038025 824.095947,547.068848 
z"/>
<path fill="#D9B35C" opacity="1.000000" stroke="none" 
	d="
M492.468140,435.652252 
	C495.063599,435.312714 498.108246,435.111053 501.594360,434.865967 
	C511.110809,434.958679 520.185730,435.094849 529.600098,435.449005 
	C517.598816,435.708038 505.258057,435.749115 492.468140,435.652252 
z"/>
<path fill="#E4C368" opacity="1.000000" stroke="none" 
	d="
M496.948730,409.750793 
	C487.789246,409.852051 478.653290,409.672058 469.230927,409.176392 
	C477.990112,408.798859 487.035645,408.736969 496.537811,408.790405 
	C496.987030,409.093628 496.979645,409.281616 496.948730,409.750793 
z"/>
<path fill="#E4C368" opacity="1.000000" stroke="none" 
	d="
M602.012939,483.583740 
	C598.476746,482.226379 594.830139,480.550507 591.098633,478.540588 
	C594.643311,479.892761 598.272888,481.578979 602.012939,483.583740 
z"/>
<path fill="#F3D981" opacity="1.000000" stroke="none" 
	d="
M828.811096,466.225525 
	C829.505493,465.992126 829.932800,465.995239 830.681274,466.006287 
	C830.728210,467.449615 830.453979,468.884979 830.022461,470.651062 
	C829.424805,469.475189 828.984436,467.968628 828.811096,466.225525 
z"/>
<path fill="#D9B35C" opacity="1.000000" stroke="none" 
	d="
M537.514526,435.832062 
	C541.756836,435.567719 546.441345,435.429779 551.444885,435.495911 
	C547.161560,435.786133 542.559082,435.872314 537.514526,435.832062 
z"/>
<path fill="#F3D981" opacity="1.000000" stroke="none" 
	d="
M792.992126,444.375702 
	C795.418396,447.411591 792.526550,449.347015 790.688660,451.804901 
	C791.163635,449.527283 791.987732,447.119476 792.992126,444.375702 
z"/>
<path fill="#D0A953" opacity="1.000000" stroke="none" 
	d="
M818.014648,523.030212 
	C817.990540,522.641602 817.966309,522.252991 817.927490,521.572754 
	C819.647827,521.250793 821.382874,521.220398 823.541931,521.277161 
	C823.182373,521.918152 822.398743,522.471924 820.920288,523.033936 
	C819.488464,523.038208 818.751526,523.034180 818.014648,523.030212 
z"/>
<path fill="#F3D981" opacity="1.000000" stroke="none" 
	d="
M793.312683,440.212921 
	C793.811768,439.991974 794.146912,439.991516 794.733276,439.994690 
	C794.569824,440.949402 794.155029,441.900452 793.411133,442.924255 
	C793.104248,442.142487 793.126465,441.287964 793.312683,440.212921 
z"/>
<path fill="#F3D981" opacity="1.000000" stroke="none" 
	d="
M641.076904,443.314453 
	C641.514648,444.285706 641.822876,445.533295 642.131042,446.780884 
	C641.858704,446.841492 641.586304,446.902100 641.313904,446.962708 
	C641.206360,446.442200 641.098816,445.921692 640.932861,445.101562 
	C640.898743,444.398224 640.923035,443.994537 641.076904,443.314453 
z"/>
<path fill="#D9B35C" opacity="1.000000" stroke="none" 
	d="
M559.473511,435.789032 
	C559.945557,435.561279 560.744629,435.461761 561.713501,435.560486 
	C561.189026,435.811584 560.494751,435.864410 559.473511,435.789032 
z"/>
<path fill="#F3D981" opacity="1.000000" stroke="none" 
	d="
M642.969116,439.975220 
	C642.727600,440.376160 642.464783,440.760803 642.043640,440.990753 
	C641.885376,440.836060 641.854980,440.372833 642.184814,440.169800 
	C642.514587,439.966766 642.905151,439.926178 642.905151,439.926178 
	C642.905151,439.926178 642.947754,439.958893 642.969116,439.975220 
z"/>
<path fill="#F7E397" opacity="1.000000" stroke="none" 
	d="
M620.034241,443.672729 
	C619.793335,443.451111 619.627747,442.898102 619.652222,442.177246 
	C619.931458,442.453400 620.020508,442.897339 620.034241,443.672729 
z"/>
<path fill="#F7E397" opacity="1.000000" stroke="none" 
	d="
M642.843628,439.753387 
	C642.905151,439.926178 642.514587,439.966766 642.318726,439.980225 
	C642.098145,439.824829 642.073486,439.656006 642.169617,439.261414 
	C642.490173,439.184998 642.654053,439.366638 642.843628,439.753387 
z"/>
<path fill="#E4C368" opacity="1.000000" stroke="none" 
	d="
M755.944580,525.746948 
	C755.806519,525.735291 755.697510,525.480164 755.723633,525.125854 
	C755.858765,525.026794 755.973572,525.503540 755.944580,525.746948 
z"/>
<path fill="#F3D981" opacity="1.000000" stroke="none" 
	d="
M829.125366,473.788300 
	C828.864868,473.812927 828.725586,473.622742 828.621704,473.414825 
	C828.609741,473.390839 828.795471,473.268097 829.062500,473.123444 
	C829.242615,473.226532 829.249817,473.397369 829.125366,473.788300 
z"/>
<path fill="#C49A48" opacity="1.000000" stroke="none" 
	d="
M755.891846,523.212402 
	C755.887207,522.970642 756.333984,522.900940 756.558472,522.924561 
	C756.630676,523.187378 756.455933,523.408691 756.119141,523.771362 
	C755.979675,523.930664 755.896484,523.454224 755.891846,523.212402 
z"/>
<path fill="#F3D981" opacity="1.000000" stroke="none" 
	d="
M832.217285,461.556274 
	C832.082886,461.653046 832.114258,461.248962 832.166565,461.202515 
	C832.218872,461.156097 832.351624,461.459503 832.217285,461.556274 
z"/>
<path fill="#E4C368" opacity="1.000000" stroke="none" 
	d="
M564.707642,463.053467 
	C564.719055,463.287872 564.427246,463.524994 563.856567,463.833191 
	C563.853210,463.621582 564.128784,463.338898 564.707642,463.053467 
z"/>
<path fill="#F3D981" opacity="1.000000" stroke="none" 
	d="
M599.684570,471.061798 
	C599.751526,471.127136 599.636230,471.105652 599.615112,471.111389 
	C599.593933,471.117157 599.617676,470.996460 599.684570,471.061798 
z"/>
<path fill="#828384" opacity="1.000000" stroke="none" 
	d="
M1104.597778,503.864105 
	C1101.654175,515.880371 1098.560547,527.863098 1095.858521,539.933472 
	C1095.046753,543.560669 1093.339478,544.892395 1089.830688,544.879456 
	C1078.706055,544.838379 1067.579956,545.008301 1056.457764,544.853760 
	C1054.921143,544.832458 1052.891235,543.835999 1051.957153,542.623047 
	C1043.552979,531.709412 1035.342407,520.646484 1027.302002,509.182434 
	C1035.516479,507.824829 1043.499023,506.865509 1051.493652,506.019196 
	C1055.578491,505.586792 1059.838379,505.705444 1062.135254,501.304443 
	C1064.724854,504.716797 1067.314331,508.129181 1070.658203,512.535583 
	C1070.658203,509.629089 1070.658203,508.088806 1071.140381,506.218994 
	C1082.614258,505.214325 1093.606079,504.539215 1104.597778,503.864105 
M1071.517822,513.363586 
	C1071.517822,513.363586 1071.602905,513.501099 1071.517822,513.363586 
z"/>
<path fill="#828384" opacity="1.000000" stroke="none" 
	d="
M967.943604,498.032501 
	C964.529358,512.049377 961.037170,526.048096 957.759521,540.096924 
	C957.008972,543.313904 955.812988,544.927002 952.185852,544.854797 
	C941.884216,544.649780 931.575928,544.782898 920.374878,544.782898 
	C924.186401,530.425049 927.880005,516.511230 932.168335,502.296204 
	C937.326111,501.244843 941.866455,500.280792 946.457458,499.793976 
	C953.601440,499.036438 960.779846,498.603180 967.943604,498.032501 
z"/>
<path fill="#ADADAE" opacity="1.000000" stroke="none" 
	d="
M1062.071167,501.010925 
	C1059.838379,505.705444 1055.578491,505.586792 1051.493652,506.019196 
	C1043.499023,506.865509 1035.516479,507.824829 1027.133423,508.878632 
	C1016.914368,496.216278 1007.090820,483.412659 997.465149,470.163757 
	C1003.635315,466.804230 1009.810669,467.463989 1016.066650,468.519501 
	C1023.339233,469.746490 1030.523682,472.776550 1038.060791,469.896179 
	C1046.042847,480.169922 1054.025024,490.443665 1062.071167,501.010925 
z"/>
<path fill="#CDCDCD" opacity="1.000000" stroke="none" 
	d="
M978.973267,446.021057 
	C977.458008,454.760651 975.942688,463.500275 973.772400,472.601013 
	C961.765869,472.660919 950.414368,472.359741 939.062805,472.058594 
	C941.374268,462.772644 943.556458,453.450745 946.118042,444.234314 
	C946.573181,442.596558 948.471130,440.368073 949.934204,440.176208 
	C955.829102,439.403259 961.944458,438.378082 967.740540,439.175354 
	C981.075073,441.009613 994.384460,439.316040 1007.681396,439.984467 
	C1015.317322,440.368378 1022.026794,445.530975 1023.745361,453.019318 
	C1021.786255,452.661407 1020.013977,452.613861 1018.458435,452.009094 
	C1007.550842,447.768646 996.459412,446.643280 984.921326,449.059570 
	C983.418518,449.374237 981.408752,447.268311 979.269409,446.000366 
	C978.818787,445.674561 978.732666,445.631989 978.646484,445.589417 
	C978.755432,445.733307 978.864380,445.877197 978.973267,446.021057 
z"/>
<path fill="#ADADAE" opacity="1.000000" stroke="none" 
	d="
M1104.764404,503.569855 
	C1093.606079,504.539215 1082.614258,505.214325 1071.178711,505.815613 
	C1072.950073,494.970245 1075.165405,484.198730 1078.051758,473.135498 
	C1090.144775,472.565887 1101.566895,472.288025 1112.989136,472.010132 
	C1110.303101,482.431946 1107.617188,492.853790 1104.764404,503.569855 
z"/>
<path fill="#CDCDCD" opacity="1.000000" stroke="none" 
	d="
M1113.076904,471.628998 
	C1101.566895,472.288025 1090.144775,472.565887 1078.292480,472.842163 
	C1079.948242,463.798492 1081.674561,454.645020 1084.411743,445.804565 
	C1084.985229,443.952637 1089.263428,442.260437 1091.868652,442.208374 
	C1099.981079,442.046204 1108.124756,442.539032 1116.213013,443.262787 
	C1117.212036,443.352173 1118.927612,446.564789 1118.644531,448.001831 
	C1117.106689,455.807373 1115.045532,463.509888 1113.076904,471.628998 
z"/>
<path fill="#ADADAE" opacity="1.000000" stroke="none" 
	d="
M938.890625,472.395813 
	C950.414368,472.359741 961.765869,472.660919 973.593140,472.938904 
	C972.130493,481.048645 970.192139,489.181610 968.098755,497.673523 
	C960.779846,498.603180 953.601440,499.036438 946.457458,499.793976 
	C941.866455,500.280792 937.326111,501.244843 932.319702,501.945190 
	C934.156982,492.174652 936.437683,482.453857 938.890625,472.395813 
z"/>
<path fill="#CDCDCD" opacity="1.000000" stroke="none" 
	d="
M1037.922852,469.591919 
	C1030.523682,472.776550 1023.339233,469.746490 1016.066650,468.519501 
	C1009.810669,467.463989 1003.635315,466.804230 997.315674,469.858521 
	C993.320801,464.713959 989.673340,459.429352 985.367554,453.191010 
	C988.742188,452.295166 991.423462,450.799194 993.915771,451.066345 
	C1001.922913,451.924561 1009.875916,454.538025 1017.820923,454.426117 
	C1028.932983,454.269470 1032.589600,462.428345 1037.922852,469.591919 
z"/>
<path fill="#020201" opacity="1.000000" stroke="none" 
	d="
M475.341125,521.220825 
	C477.974030,510.998108 480.606934,500.775391 483.327820,490.211029 
	C491.589508,490.211029 499.831970,490.211029 508.996216,490.178833 
	C523.275146,490.073151 536.632263,489.999695 549.989380,489.926208 
	C551.131409,490.127167 552.269226,490.356964 553.416138,490.524628 
	C565.202942,492.247467 567.868164,496.120728 565.338867,508.168823 
	C562.214050,512.099976 558.926147,515.497131 555.638245,518.894287 
	C555.264282,518.879761 554.890259,518.865234 553.954163,518.955688 
	C553.119324,519.341675 552.846680,519.622742 552.574036,519.903809 
	C552.574036,519.903809 552.292358,519.795593 551.894653,519.824585 
	C551.330566,519.923523 551.164185,519.993469 550.997742,520.063477 
	C550.997742,520.063477 550.603149,519.975159 550.603149,519.975159 
	C550.603149,519.975159 550.210144,520.070496 549.682495,520.196533 
	C548.440613,520.526367 547.726501,520.730042 547.012329,520.933777 
	C523.591797,521.128662 500.171234,521.323608 476.233887,521.393555 
	C475.717102,521.268494 475.341095,521.220825 475.341125,521.220825 
z"/>
<path fill="#C49A48" opacity="1.000000" stroke="none" 
	d="
M556.043335,518.932861 
	C558.926147,515.497131 562.214050,512.099976 565.639160,508.410522 
	C566.660767,507.512268 567.545105,506.906342 569.089661,506.157776 
	C575.524719,509.022583 581.236267,512.160645 587.094666,514.995361 
	C591.656250,517.202637 596.400635,519.032166 601.063782,521.029602 
	C598.419373,526.573914 595.185730,531.627991 589.337524,534.903931 
	C588.245300,534.023010 587.648132,532.405212 586.632507,532.075256 
	C582.731934,530.807739 578.679626,530.015747 574.722961,528.907104 
	C573.499878,528.564392 571.979004,528.079468 571.314880,527.146667 
	C567.639832,521.984680 561.935852,520.714355 556.043335,518.932861 
z"/>
<path fill="#C49A48" opacity="1.000000" stroke="none" 
	d="
M547.009521,521.203979 
	C547.726501,520.730042 548.440613,520.526367 549.532227,520.331787 
	C549.195862,520.891235 548.482056,521.441406 547.392700,522.002991 
	C547.013672,521.834290 547.010193,521.654236 547.009521,521.203979 
z"/>
<path fill="#C49A48" opacity="1.000000" stroke="none" 
	d="
M577.463135,541.521729 
	C577.438293,541.476929 577.487915,541.566467 577.463135,541.521729 
z"/>
<path fill="#C49A48" opacity="1.000000" stroke="none" 
	d="
M552.853271,519.840698 
	C552.846680,519.622742 553.119324,519.341675 553.690918,519.057983 
	C553.704041,519.296082 553.418213,519.536865 552.853271,519.840698 
z"/>
<path fill="#C49A48" opacity="1.000000" stroke="none" 
	d="
M551.109802,520.208618 
	C551.164185,519.993469 551.330566,519.923523 551.764038,519.900146 
	C551.761353,520.082397 551.491638,520.218079 551.109802,520.208618 
z"/>
<path fill="#D0A953" opacity="1.000000" stroke="none" 
	d="
M601.320190,520.816406 
	C596.400635,519.032166 591.656250,517.202637 587.094666,514.995361 
	C581.236267,512.160645 575.524719,509.022583 569.374939,506.006958 
	C569.136536,502.923248 569.258545,499.846954 569.417603,496.772583 
	C569.473938,495.684631 569.345886,493.822357 569.780029,493.669281 
	C570.866638,493.286133 572.233887,493.624542 573.473450,493.788391 
	C573.933350,493.849213 574.492371,494.122437 574.766785,494.481659 
	C579.336487,500.464233 586.556702,502.021698 592.655457,505.491302 
	C596.729492,507.809082 600.069885,511.416443 603.902954,514.746704 
	C603.237122,516.898865 602.406860,518.751099 601.320190,520.816406 
z"/>
<path fill="#E4C368" opacity="1.000000" stroke="none" 
	d="
M549.774414,489.599182 
	C536.632263,489.999695 523.275146,490.073151 509.453430,490.070007 
	C512.695801,488.985535 516.402771,487.977722 520.539917,486.958191 
	C529.312134,487.299622 537.656555,487.608215 545.993530,488.055511 
	C547.200500,488.120270 548.371643,488.850098 549.774414,489.599182 
z"/>
<path fill="#BB8E3A" opacity="1.000000" stroke="none" 
	d="
M438.415924,504.990723 
	C439.319305,499.256165 440.653076,493.530426 441.994629,487.406616 
	C442.002441,487.008545 442.000702,487.000000 442.413818,487.001068 
	C444.575745,487.346222 446.440948,487.410278 448.054199,488.080627 
	C457.421722,491.973022 466.729950,496.008026 476.058167,499.994873 
	C474.884796,506.151215 473.711395,512.307556 472.268372,518.731934 
	C466.983032,515.864136 462.257080,512.035767 456.872070,509.782257 
	C451.191162,507.404999 444.881378,506.530548 438.415924,504.990723 
z"/>
<path fill="#C49A48" opacity="1.000000" stroke="none" 
	d="
M476.366943,499.811310 
	C466.729950,496.008026 457.421722,491.973022 448.054199,488.080627 
	C446.440948,487.410278 444.575745,487.346222 442.417603,487.002289 
	C442.705933,484.454315 443.426605,481.912231 444.096466,479.356812 
	C445.554993,473.793060 448.858154,471.488403 454.386902,473.423218 
	C462.336731,476.205322 470.055328,479.662720 477.813171,482.971283 
	C480.676910,484.192596 481.608551,486.383698 480.345032,489.478027 
	C478.986176,492.805847 477.887726,496.240021 476.366943,499.811310 
z"/>
<path fill="#BB8E3A" opacity="1.000000" stroke="none" 
	d="
M475.756836,521.453796 
	C475.796570,521.639099 475.383362,521.798218 475.383362,521.798218 
	C475.383362,521.798218 475.181702,521.399170 475.261414,521.309998 
	C475.341095,521.220825 475.717102,521.268494 475.756836,521.453796 
z"/>
<path fill="#D0A953" opacity="1.000000" stroke="none" 
	d="
M632.394409,486.943909 
	C633.491333,481.174255 634.987610,475.352203 637.192688,469.267761 
	C643.447327,468.270538 648.277100,469.924133 652.605164,473.347870 
	C657.608337,477.305511 662.621948,481.250641 667.680176,485.137207 
	C668.680664,485.905945 669.903931,486.384796 671.024414,486.997314 
	C670.212769,490.819458 669.401123,494.641602 668.336670,498.728119 
	C664.131409,496.925720 660.302368,494.562012 656.199707,492.856842 
	C648.714111,489.745667 641.709412,484.471313 632.394409,486.943909 
z"/>
<path fill="#BB8E3A" opacity="1.000000" stroke="none" 
	d="
M817.701050,523.164062 
	C818.751526,523.034180 819.488464,523.038208 820.592957,523.052856 
	C825.040344,527.941650 828.854065,533.081055 833.294373,537.605530 
	C836.214966,540.581604 836.502747,543.044312 834.024841,546.487305 
	C830.966003,546.905823 827.974121,546.983276 824.539124,547.064819 
	C822.335693,547.038025 820.575378,547.007202 818.375061,546.952759 
	C818.608154,541.707092 816.414307,538.618347 811.872925,535.656738 
	C805.698608,531.630188 800.758362,525.748352 794.717712,521.468262 
	C789.862610,518.028198 784.158630,515.786255 778.434692,513.018433 
	C779.175232,508.846191 780.312500,504.668213 782.093567,500.249695 
	C792.263245,504.602936 803.085022,506.755829 810.667603,515.045105 
	C811.646057,516.114685 813.494385,516.388550 814.939758,517.031006 
	C813.449524,522.862732 813.476074,522.930664 817.701050,523.164062 
z"/>
<path fill="#E4C368" opacity="1.000000" stroke="none" 
	d="
M486.390167,433.911316 
	C486.372223,426.502960 486.816528,419.133240 487.292023,411.245697 
	C490.812500,411.057892 495.041901,410.832306 499.571167,410.350403 
	C505.469391,410.094147 511.067688,410.094147 516.666016,410.094147 
	C516.674316,410.326782 516.682617,410.559387 516.690979,410.792023 
	C515.353149,410.855774 514.015625,410.966705 512.677429,410.975555 
	C504.457703,411.029846 502.887451,412.024872 503.177887,420.169128 
	C503.376495,425.739441 500.860931,429.807190 497.223907,432.512177 
	C494.768524,434.338348 490.377533,433.562073 486.390167,433.911316 
z"/>
<path fill="#D9B35C" opacity="1.000000" stroke="none" 
	d="
M671.288940,486.725464 
	C669.903931,486.384796 668.680664,485.905945 667.680176,485.137207 
	C662.621948,481.250641 657.608337,477.305511 652.605164,473.347870 
	C648.277100,469.924133 643.447327,468.270538 637.456848,469.006897 
	C637.802673,465.461151 638.569214,461.908325 639.390076,458.368103 
	C640.298096,454.452118 643.074341,452.983765 646.490234,454.437317 
	C654.850098,457.994690 663.105713,461.832336 671.204224,465.948822 
	C673.824280,467.280609 675.526611,469.601257 674.245361,473.388580 
	C672.831177,477.568756 672.408142,482.084198 671.288940,486.725464 
z"/>
<path fill="#F3D981" opacity="1.000000" stroke="none" 
	d="
M836.986755,438.563904 
	C834.843933,445.806488 832.702271,452.622253 830.300476,459.712280 
	C822.042480,449.886871 810.984985,443.952759 799.936951,438.053406 
	C798.832947,437.463928 797.158630,437.942505 795.404846,437.972382 
	C796.958679,431.835724 798.711121,425.602661 800.790833,419.480774 
	C803.513611,411.466339 806.588379,409.879242 812.766479,415.214447 
	C819.307983,420.863434 826.875244,423.051483 834.637329,425.281097 
	C838.106812,426.277771 839.173279,427.806610 838.017517,431.296295 
	C837.303040,433.453613 837.306641,435.848724 836.986755,438.563904 
z"/>
<path fill="#D0A953" opacity="1.000000" stroke="none" 
	d="
M820.052979,500.666138 
	C819.881531,500.990540 819.706238,500.994019 819.111877,500.701080 
	C808.993347,490.916138 796.961365,488.520966 783.986816,488.992126 
	C784.992065,484.270996 785.997314,479.549866 787.396057,474.409241 
	C792.475159,472.216431 797.017395,472.193329 801.577942,474.617615 
	C803.130554,475.442932 805.078247,475.521545 806.842529,475.952820 
	C814.275208,477.769562 820.634399,480.919220 823.010559,489.002167 
	C822.995728,489.744385 822.980835,490.486572 822.674377,491.648346 
	C822.263916,492.713654 822.145142,493.359436 822.026367,494.005188 
	C822.009766,494.748749 821.993164,495.492279 821.654846,496.667633 
	C820.914368,497.753479 820.495667,498.407532 820.077026,499.061584 
	C820.067749,499.489471 820.058411,499.917389 820.052979,500.666138 
z"/>
<path fill="#D9B35C" opacity="1.000000" stroke="none" 
	d="
M823.285278,488.705750 
	C820.634399,480.919220 814.275208,477.769562 806.842529,475.952820 
	C805.078247,475.521545 803.130554,475.442932 801.577942,474.617615 
	C797.017395,472.193329 792.475159,472.216431 787.405762,474.002563 
	C788.483459,469.109467 789.824524,464.163605 791.438416,459.308411 
	C793.240234,453.888214 795.586731,453.456573 800.646912,456.275146 
	C807.243164,459.949310 814.191101,462.986053 820.890320,466.483582 
	C824.760010,468.503906 826.652283,471.395477 825.271179,476.219299 
	C824.152771,480.125732 824.090637,484.334595 823.285278,488.705750 
z"/>
<path fill="#C49A48" opacity="1.000000" stroke="none" 
	d="
M783.850342,489.302429 
	C796.961365,488.520966 808.993347,490.916138 818.848816,500.703308 
	C817.700317,506.088257 816.395752,511.174500 815.015503,516.645874 
	C813.494385,516.388550 811.646057,516.114685 810.667603,515.045105 
	C803.085022,506.755829 792.263245,504.602936 782.357727,499.992828 
	C781.988281,498.271606 781.998535,496.566681 782.006470,494.435425 
	C782.574036,492.543640 783.143982,491.078186 783.850342,489.302429 
z"/>
<path fill="#D9B35C" opacity="1.000000" stroke="none" 
	d="
M822.256714,493.822083 
	C822.145142,493.359436 822.263916,492.713654 822.659668,492.019226 
	C822.786804,492.526733 822.636902,493.082886 822.256714,493.822083 
z"/>
<path fill="#D9B35C" opacity="1.000000" stroke="none" 
	d="
M820.384277,498.992126 
	C820.495667,498.407532 820.914368,497.753479 821.645386,497.039398 
	C821.535645,497.627136 821.113647,498.274902 820.384277,498.992126 
z"/>
<path fill="#D9B35C" opacity="1.000000" stroke="none" 
	d="
M862.044983,523.374512 
	C864.291504,523.031860 866.612122,523.101013 868.923462,522.985535 
	C874.900513,522.686890 880.447510,522.284668 883.556641,529.551270 
	C884.543457,531.857422 889.154541,533.287231 892.331604,533.849304 
	C900.314758,535.261658 901.896057,536.259155 901.999817,542.579468 
	C887.298096,543.596191 876.059204,536.263489 865.619934,527.121033 
	C864.393921,526.047241 863.280457,524.844971 862.044983,523.374512 
z"/>
<path fill="#ADADAE" opacity="1.000000" stroke="none" 
	d="
M1071.560303,513.432373 
	C1071.602905,513.501099 1071.517822,513.363586 1071.560303,513.432373 
z"/>
<path fill="#EDEDED" opacity="1.000000" stroke="none" 
	d="
M978.986084,446.010559 
	C978.864380,445.877197 978.755432,445.733307 978.646484,445.589417 
	C978.732666,445.631989 978.818787,445.674561 978.962280,445.845795 
	C979.019653,445.974487 978.998840,446.000031 978.986084,446.010559 
z"/>
</svg>